# This file uses centimeters as units for non-parametric coordinates.

mtllib Time.mtl
g default
v -10.000000 -0.000000 0.500000
v -9.800000 -0.000000 0.500000
v -9.600000 -0.000000 0.500000
v -9.400000 -0.000000 0.500000
v -9.200000 -0.000000 0.500000
v -9.000000 -0.000000 0.500000
v -8.800000 -0.000000 0.500000
v -8.600000 -0.000000 0.500000
v -8.400000 -0.000000 0.500000
v -8.200000 -0.000000 0.500000
v -8.000000 -0.000000 0.500000
v -7.800000 -0.000000 0.500000
v -7.600000 -0.000000 0.500000
v -7.400000 -0.000000 0.500000
v -7.200000 -0.000000 0.500000
v -7.000000 -0.000000 0.500000
v -6.800000 -0.000000 0.500000
v -6.600000 -0.000000 0.500000
v -6.400000 -0.000000 0.500000
v -6.200000 -0.000000 0.500000
v -6.000000 -0.000000 0.500000
v -5.800000 -0.000000 0.500000
v -5.600000 -0.000000 0.500000
v -5.400000 -0.000000 0.500000
v -5.200000 -0.000000 0.500000
v -5.000000 -0.000000 0.500000
v -4.800000 -0.000000 0.500000
v -4.600000 -0.000000 0.500000
v -4.400000 -0.000000 0.500000
v -4.200000 -0.000000 0.500000
v -4.000000 -0.000000 0.500000
v -3.800000 -0.000000 0.500000
v -3.600000 -0.000000 0.500000
v -3.400000 -0.000000 0.500000
v -3.200000 -0.000000 0.500000
v -3.000000 -0.000000 0.500000
v -2.800000 -0.000000 0.500000
v -2.600000 -0.000000 0.500000
v -2.400000 -0.000000 0.500000
v -2.200000 -0.000000 0.500000
v -2.000000 -0.000000 0.500000
v -1.800000 -0.000000 0.500000
v -1.599999 -0.000000 0.500000
v -1.400000 -0.000000 0.500000
v -1.200000 -0.000000 0.500000
v -1.000000 -0.000000 0.500000
v -0.800000 -0.000000 0.500000
v -0.599999 -0.000000 0.500000
v -0.400000 -0.000000 0.500000
v -0.200000 -0.000000 0.500000
v 0.000000 -0.000000 0.500000
v 0.200000 -0.000000 0.500000
v 0.400001 -0.000000 0.500000
v 0.600000 -0.000000 0.500000
v 0.800000 -0.000000 0.500000
v 1.000000 -0.000000 0.500000
v 1.200000 -0.000000 0.500000
v 1.400001 -0.000000 0.500000
v 1.600000 -0.000000 0.500000
v 1.800000 -0.000000 0.500000
v 2.000000 -0.000000 0.500000
v 2.200000 -0.000000 0.500000
v 2.400001 -0.000000 0.500000
v 2.600000 -0.000000 0.500000
v 2.800000 -0.000000 0.500000
v 3.000000 -0.000000 0.500000
v 3.200000 -0.000000 0.500000
v 3.400001 -0.000000 0.500000
v 3.600000 -0.000000 0.500000
v 3.800000 -0.000000 0.500000
v 4.000000 -0.000000 0.500000
v 4.200000 -0.000000 0.500000
v 4.400001 -0.000000 0.500000
v 4.600000 -0.000000 0.500000
v 4.800000 -0.000000 0.500000
v 5.000000 -0.000000 0.500000
v 5.200000 -0.000000 0.500000
v 5.400001 -0.000000 0.500000
v 5.600000 -0.000000 0.500000
v 5.800000 -0.000000 0.500000
v 6.000000 -0.000000 0.500000
v 6.200001 -0.000000 0.500000
v 6.400000 -0.000000 0.500000
v 6.600000 -0.000000 0.500000
v 6.800001 -0.000000 0.500000
v 7.000000 -0.000000 0.500000
v 7.200001 -0.000000 0.500000
v 7.400000 -0.000000 0.500000
v 7.600000 -0.000000 0.500000
v 7.800001 -0.000000 0.500000
v 8.000000 -0.000000 0.500000
v 8.200001 -0.000000 0.500000
v 8.400000 -0.000000 0.500000
v 8.600000 -0.000000 0.500000
v 8.800001 -0.000000 0.500000
v 9.000000 -0.000000 0.500000
v 9.200001 -0.000000 0.500000
v 9.400000 -0.000000 0.500000
v 9.600000 -0.000000 0.500000
v 9.800001 -0.000000 0.500000
v 10.000000 -0.000000 0.500000
v -10.000000 0.000000 -0.500000
v -9.800000 0.000000 -0.500000
v -9.600000 0.000000 -0.500000
v -9.400000 0.000000 -0.500000
v -9.200000 0.000000 -0.500000
v -9.000000 0.000000 -0.500000
v -8.800000 0.000000 -0.500000
v -8.600000 0.000000 -0.500000
v -8.400000 0.000000 -0.500000
v -8.200000 0.000000 -0.500000
v -8.000000 0.000000 -0.500000
v -7.800000 0.000000 -0.500000
v -7.600000 0.000000 -0.500000
v -7.400000 0.000000 -0.500000
v -7.200000 0.000000 -0.500000
v -7.000000 0.000000 -0.500000
v -6.800000 0.000000 -0.500000
v -6.600000 0.000000 -0.500000
v -6.400000 0.000000 -0.500000
v -6.200000 0.000000 -0.500000
v -6.000000 0.000000 -0.500000
v -5.800000 0.000000 -0.500000
v -5.600000 0.000000 -0.500000
v -5.400000 0.000000 -0.500000
v -5.200000 0.000000 -0.500000
v -5.000000 0.000000 -0.500000
v -4.800000 0.000000 -0.500000
v -4.600000 0.000000 -0.500000
v -4.400000 0.000000 -0.500000
v -4.200000 0.000000 -0.500000
v -4.000000 0.000000 -0.500000
v -3.800000 0.000000 -0.500000
v -3.600000 0.000000 -0.500000
v -3.400000 0.000000 -0.500000
v -3.200000 0.000000 -0.500000
v -3.000000 0.000000 -0.500000
v -2.800000 0.000000 -0.500000
v -2.600000 0.000000 -0.500000
v -2.400000 0.000000 -0.500000
v -2.200000 0.000000 -0.500000
v -2.000000 0.000000 -0.500000
v -1.800000 0.000000 -0.500000
v -1.599999 0.000000 -0.500000
v -1.400000 0.000000 -0.500000
v -1.200000 0.000000 -0.500000
v -1.000000 0.000000 -0.500000
v -0.800000 0.000000 -0.500000
v -0.599999 0.000000 -0.500000
v -0.400000 0.000000 -0.500000
v -0.200000 0.000000 -0.500000
v 0.000000 0.000000 -0.500000
v 0.200000 0.000000 -0.500000
v 0.400001 0.000000 -0.500000
v 0.600000 0.000000 -0.500000
v 0.800000 0.000000 -0.500000
v 1.000000 0.000000 -0.500000
v 1.200000 0.000000 -0.500000
v 1.400001 0.000000 -0.500000
v 1.600000 0.000000 -0.500000
v 1.800000 0.000000 -0.500000
v 2.000000 0.000000 -0.500000
v 2.200000 0.000000 -0.500000
v 2.400001 0.000000 -0.500000
v 2.600000 0.000000 -0.500000
v 2.800000 0.000000 -0.500000
v 3.000000 0.000000 -0.500000
v 3.200000 0.000000 -0.500000
v 3.400001 0.000000 -0.500000
v 3.600000 0.000000 -0.500000
v 3.800000 0.000000 -0.500000
v 4.000000 0.000000 -0.500000
v 4.200000 0.000000 -0.500000
v 4.400001 0.000000 -0.500000
v 4.600000 0.000000 -0.500000
v 4.800000 0.000000 -0.500000
v 5.000000 0.000000 -0.500000
v 5.200000 0.000000 -0.500000
v 5.400001 0.000000 -0.500000
v 5.600000 0.000000 -0.500000
v 5.800000 0.000000 -0.500000
v 6.000000 0.000000 -0.500000
v 6.200001 0.000000 -0.500000
v 6.400000 0.000000 -0.500000
v 6.600000 0.000000 -0.500000
v 6.800001 0.000000 -0.500000
v 7.000000 0.000000 -0.500000
v 7.200001 0.000000 -0.500000
v 7.400000 0.000000 -0.500000
v 7.600000 0.000000 -0.500000
v 7.800001 0.000000 -0.500000
v 8.000000 0.000000 -0.500000
v 8.200001 0.000000 -0.500000
v 8.400000 0.000000 -0.500000
v 8.600000 0.000000 -0.500000
v 8.800001 0.000000 -0.500000
v 9.000000 0.000000 -0.500000
v 9.200001 0.000000 -0.500000
v 9.400000 0.000000 -0.500000
v 9.600000 0.000000 -0.500000
v 9.800001 0.000000 -0.500000
v 10.000000 0.000000 -0.500000
vt 0.000000 0.000000
vt 0.010000 0.000000
vt 0.020000 0.000000
vt 0.030000 0.000000
vt 0.040000 0.000000
vt 0.050000 0.000000
vt 0.060000 0.000000
vt 0.070000 0.000000
vt 0.080000 0.000000
vt 0.090000 0.000000
vt 0.100000 0.000000
vt 0.110000 0.000000
vt 0.120000 0.000000
vt 0.130000 0.000000
vt 0.140000 0.000000
vt 0.150000 0.000000
vt 0.160000 0.000000
vt 0.170000 0.000000
vt 0.180000 0.000000
vt 0.190000 0.000000
vt 0.200000 0.000000
vt 0.210000 0.000000
vt 0.220000 0.000000
vt 0.230000 0.000000
vt 0.240000 0.000000
vt 0.250000 0.000000
vt 0.260000 0.000000
vt 0.270000 0.000000
vt 0.280000 0.000000
vt 0.290000 0.000000
vt 0.300000 0.000000
vt 0.310000 0.000000
vt 0.320000 0.000000
vt 0.330000 0.000000
vt 0.340000 0.000000
vt 0.350000 0.000000
vt 0.360000 0.000000
vt 0.370000 0.000000
vt 0.380000 0.000000
vt 0.390000 0.000000
vt 0.400000 0.000000
vt 0.410000 0.000000
vt 0.420000 0.000000
vt 0.430000 0.000000
vt 0.440000 0.000000
vt 0.450000 0.000000
vt 0.460000 0.000000
vt 0.470000 0.000000
vt 0.480000 0.000000
vt 0.490000 0.000000
vt 0.500000 0.000000
vt 0.510000 0.000000
vt 0.520000 0.000000
vt 0.530000 0.000000
vt 0.540000 0.000000
vt 0.550000 0.000000
vt 0.560000 0.000000
vt 0.570000 0.000000
vt 0.580000 0.000000
vt 0.590000 0.000000
vt 0.600000 0.000000
vt 0.610000 0.000000
vt 0.620000 0.000000
vt 0.630000 0.000000
vt 0.640000 0.000000
vt 0.650000 0.000000
vt 0.660000 0.000000
vt 0.670000 0.000000
vt 0.680000 0.000000
vt 0.690000 0.000000
vt 0.700000 0.000000
vt 0.710000 0.000000
vt 0.720000 0.000000
vt 0.730000 0.000000
vt 0.740000 0.000000
vt 0.750000 0.000000
vt 0.760000 0.000000
vt 0.770000 0.000000
vt 0.780000 0.000000
vt 0.790000 0.000000
vt 0.800000 0.000000
vt 0.810000 0.000000
vt 0.820000 0.000000
vt 0.830000 0.000000
vt 0.840000 0.000000
vt 0.850000 0.000000
vt 0.860000 0.000000
vt 0.870000 0.000000
vt 0.880000 0.000000
vt 0.890000 0.000000
vt 0.900000 0.000000
vt 0.910000 0.000000
vt 0.920000 0.000000
vt 0.930000 0.000000
vt 0.940000 0.000000
vt 0.950000 0.000000
vt 0.960000 0.000000
vt 0.970000 0.000000
vt 0.980000 0.000000
vt 0.990000 0.000000
vt 1.000000 0.000000
vt 0.000000 0.010000
vt 0.010000 0.010000
vt 0.020000 0.010000
vt 0.030000 0.010000
vt 0.040000 0.010000
vt 0.050000 0.010000
vt 0.060000 0.010000
vt 0.070000 0.010000
vt 0.080000 0.010000
vt 0.090000 0.010000
vt 0.100000 0.010000
vt 0.110000 0.010000
vt 0.120000 0.010000
vt 0.130000 0.010000
vt 0.140000 0.010000
vt 0.150000 0.010000
vt 0.160000 0.010000
vt 0.170000 0.010000
vt 0.180000 0.010000
vt 0.190000 0.010000
vt 0.200000 0.010000
vt 0.210000 0.010000
vt 0.220000 0.010000
vt 0.230000 0.010000
vt 0.240000 0.010000
vt 0.250000 0.010000
vt 0.260000 0.010000
vt 0.270000 0.010000
vt 0.280000 0.010000
vt 0.290000 0.010000
vt 0.300000 0.010000
vt 0.310000 0.010000
vt 0.320000 0.010000
vt 0.330000 0.010000
vt 0.340000 0.010000
vt 0.350000 0.010000
vt 0.360000 0.010000
vt 0.370000 0.010000
vt 0.380000 0.010000
vt 0.390000 0.010000
vt 0.400000 0.010000
vt 0.410000 0.010000
vt 0.420000 0.010000
vt 0.430000 0.010000
vt 0.440000 0.010000
vt 0.450000 0.010000
vt 0.460000 0.010000
vt 0.470000 0.010000
vt 0.480000 0.010000
vt 0.490000 0.010000
vt 0.500000 0.010000
vt 0.510000 0.010000
vt 0.520000 0.010000
vt 0.530000 0.010000
vt 0.540000 0.010000
vt 0.550000 0.010000
vt 0.560000 0.010000
vt 0.570000 0.010000
vt 0.580000 0.010000
vt 0.590000 0.010000
vt 0.600000 0.010000
vt 0.610000 0.010000
vt 0.620000 0.010000
vt 0.630000 0.010000
vt 0.640000 0.010000
vt 0.650000 0.010000
vt 0.660000 0.010000
vt 0.670000 0.010000
vt 0.680000 0.010000
vt 0.690000 0.010000
vt 0.700000 0.010000
vt 0.710000 0.010000
vt 0.720000 0.010000
vt 0.730000 0.010000
vt 0.740000 0.010000
vt 0.750000 0.010000
vt 0.760000 0.010000
vt 0.770000 0.010000
vt 0.780000 0.010000
vt 0.790000 0.010000
vt 0.800000 0.010000
vt 0.810000 0.010000
vt 0.820000 0.010000
vt 0.830000 0.010000
vt 0.840000 0.010000
vt 0.850000 0.010000
vt 0.860000 0.010000
vt 0.870000 0.010000
vt 0.880000 0.010000
vt 0.890000 0.010000
vt 0.900000 0.010000
vt 0.910000 0.010000
vt 0.920000 0.010000
vt 0.930000 0.010000
vt 0.940000 0.010000
vt 0.950000 0.010000
vt 0.960000 0.010000
vt 0.970000 0.010000
vt 0.980000 0.010000
vt 0.990000 0.010000
vt 1.000000 0.010000
vn 0.000000 1.000000 0.000000
vn 0.000000 1.000000 0.000000
vn 0.000000 1.000000 0.000000
vn 0.000000 1.000000 0.000000
vn 0.000000 1.000000 0.000000
vn 0.000000 1.000000 0.000000
vn 0.000000 1.000000 0.000000
vn 0.000000 1.000000 0.000000
vn 0.000000 1.000000 0.000000
vn 0.000000 1.000000 0.000000
vn 0.000000 1.000000 0.000000
vn 0.000000 1.000000 0.000000
vn 0.000000 1.000000 0.000000
vn 0.000000 1.000000 0.000000
vn 0.000000 1.000000 0.000000
vn 0.000000 1.000000 0.000000
vn 0.000000 1.000000 0.000000
vn 0.000000 1.000000 0.000000
vn 0.000000 1.000000 0.000000
vn 0.000000 1.000000 0.000000
vn 0.000000 1.000000 0.000000
vn 0.000000 1.000000 0.000000
vn 0.000000 1.000000 0.000000
vn 0.000000 1.000000 0.000000
vn 0.000000 1.000000 0.000000
vn 0.000000 1.000000 0.000000
vn 0.000000 1.000000 0.000000
vn 0.000000 1.000000 0.000000
vn 0.000000 1.000000 0.000000
vn 0.000000 1.000000 0.000000
vn 0.000000 1.000000 0.000000
vn 0.000000 1.000000 0.000000
vn 0.000000 1.000000 0.000000
vn 0.000000 1.000000 0.000000
vn 0.000000 1.000000 0.000000
vn 0.000000 1.000000 0.000000
vn 0.000000 1.000000 0.000000
vn 0.000000 1.000000 0.000000
vn 0.000000 1.000000 0.000000
vn 0.000000 1.000000 0.000000
vn 0.000000 1.000000 0.000000
vn 0.000000 1.000000 0.000000
vn 0.000000 1.000000 0.000000
vn 0.000000 1.000000 0.000000
vn 0.000000 1.000000 0.000000
vn 0.000000 1.000000 0.000000
vn 0.000000 1.000000 0.000000
vn 0.000000 1.000000 0.000000
vn 0.000000 1.000000 0.000000
vn 0.000000 1.000000 0.000000
vn 0.000000 1.000000 0.000000
vn 0.000000 1.000000 0.000000
vn 0.000000 1.000000 0.000000
vn 0.000000 1.000000 0.000000
vn 0.000000 1.000000 0.000000
vn 0.000000 1.000000 0.000000
vn 0.000000 1.000000 0.000000
vn 0.000000 1.000000 0.000000
vn 0.000000 1.000000 0.000000
vn 0.000000 1.000000 0.000000
vn 0.000000 1.000000 0.000000
vn 0.000000 1.000000 0.000000
vn 0.000000 1.000000 0.000000
vn 0.000000 1.000000 0.000000
vn 0.000000 1.000000 0.000000
vn 0.000000 1.000000 0.000000
vn 0.000000 1.000000 0.000000
vn 0.000000 1.000000 0.000000
vn 0.000000 1.000000 0.000000
vn 0.000000 1.000000 0.000000
vn 0.000000 1.000000 0.000000
vn 0.000000 1.000000 0.000000
vn 0.000000 1.000000 0.000000
vn 0.000000 1.000000 0.000000
vn 0.000000 1.000000 0.000000
vn 0.000000 1.000000 0.000000
vn 0.000000 1.000000 0.000000
vn 0.000000 1.000000 0.000000
vn 0.000000 1.000000 0.000000
vn 0.000000 1.000000 0.000000
vn 0.000000 1.000000 0.000000
vn 0.000000 1.000000 0.000000
vn 0.000000 1.000000 0.000000
vn 0.000000 1.000000 0.000000
vn 0.000000 1.000000 0.000000
vn 0.000000 1.000000 0.000000
vn 0.000000 1.000000 0.000000
vn 0.000000 1.000000 0.000000
vn 0.000000 1.000000 0.000000
vn 0.000000 1.000000 0.000000
vn 0.000000 1.000000 0.000000
vn 0.000000 1.000000 0.000000
vn 0.000000 1.000000 0.000000
vn 0.000000 1.000000 0.000000
vn 0.000000 1.000000 0.000000
vn 0.000000 1.000000 0.000000
vn 0.000000 1.000000 0.000000
vn 0.000000 1.000000 0.000000
vn 0.000000 1.000000 0.000000
vn 0.000000 1.000000 0.000000
vn 0.000000 1.000000 0.000000
vn 0.000000 1.000000 0.000000
vn 0.000000 1.000000 0.000000
vn 0.000000 1.000000 0.000000
vn 0.000000 1.000000 0.000000
vn 0.000000 1.000000 0.000000
vn 0.000000 1.000000 0.000000
vn 0.000000 1.000000 0.000000
vn 0.000000 1.000000 0.000000
vn 0.000000 1.000000 0.000000
vn 0.000000 1.000000 0.000000
vn 0.000000 1.000000 0.000000
vn 0.000000 1.000000 0.000000
vn 0.000000 1.000000 0.000000
vn 0.000000 1.000000 0.000000
vn 0.000000 1.000000 0.000000
vn 0.000000 1.000000 0.000000
vn 0.000000 1.000000 0.000000
vn 0.000000 1.000000 0.000000
vn 0.000000 1.000000 0.000000
vn 0.000000 1.000000 0.000000
vn 0.000000 1.000000 0.000000
vn 0.000000 1.000000 0.000000
vn 0.000000 1.000000 0.000000
vn 0.000000 1.000000 0.000000
vn 0.000000 1.000000 0.000000
vn 0.000000 1.000000 0.000000
vn 0.000000 1.000000 0.000000
vn 0.000000 1.000000 0.000000
vn 0.000000 1.000000 0.000000
vn 0.000000 1.000000 0.000000
vn 0.000000 1.000000 0.000000
vn 0.000000 1.000000 0.000000
vn 0.000000 1.000000 0.000000
vn 0.000000 1.000000 0.000000
vn 0.000000 1.000000 0.000000
vn 0.000000 1.000000 0.000000
vn 0.000000 1.000000 0.000000
vn 0.000000 1.000000 0.000000
vn 0.000000 1.000000 0.000000
vn 0.000000 1.000000 0.000000
vn 0.000000 1.000000 0.000000
vn 0.000000 1.000000 0.000000
vn 0.000000 1.000000 0.000000
vn 0.000000 1.000000 0.000000
vn 0.000000 1.000000 0.000000
vn 0.000000 1.000000 0.000000
vn 0.000000 1.000000 0.000000
vn 0.000000 1.000000 0.000000
vn 0.000000 1.000000 0.000000
vn 0.000000 1.000000 0.000000
vn 0.000000 1.000000 0.000000
vn 0.000000 1.000000 0.000000
vn 0.000000 1.000000 0.000000
vn 0.000000 1.000000 0.000000
vn 0.000000 1.000000 0.000000
vn 0.000000 1.000000 0.000000
vn 0.000000 1.000000 0.000000
vn 0.000000 1.000000 0.000000
vn 0.000000 1.000000 0.000000
vn 0.000000 1.000000 0.000000
vn 0.000000 1.000000 0.000000
vn 0.000000 1.000000 0.000000
vn 0.000000 1.000000 0.000000
vn 0.000000 1.000000 0.000000
vn 0.000000 1.000000 0.000000
vn 0.000000 1.000000 0.000000
vn 0.000000 1.000000 0.000000
vn 0.000000 1.000000 0.000000
vn 0.000000 1.000000 0.000000
vn 0.000000 1.000000 0.000000
vn 0.000000 1.000000 0.000000
vn 0.000000 1.000000 0.000000
vn 0.000000 1.000000 0.000000
vn 0.000000 1.000000 0.000000
vn 0.000000 1.000000 0.000000
vn 0.000000 1.000000 0.000000
vn 0.000000 1.000000 0.000000
vn 0.000000 1.000000 0.000000
vn 0.000000 1.000000 0.000000
vn 0.000000 1.000000 0.000000
vn 0.000000 1.000000 0.000000
vn 0.000000 1.000000 0.000000
vn 0.000000 1.000000 0.000000
vn 0.000000 1.000000 0.000000
vn 0.000000 1.000000 0.000000
vn 0.000000 1.000000 0.000000
vn 0.000000 1.000000 0.000000
vn 0.000000 1.000000 0.000000
vn 0.000000 1.000000 0.000000
vn 0.000000 1.000000 0.000000
vn 0.000000 1.000000 0.000000
vn 0.000000 1.000000 0.000000
vn 0.000000 1.000000 0.000000
vn 0.000000 1.000000 0.000000
vn 0.000000 1.000000 0.000000
vn 0.000000 1.000000 0.000000
vn 0.000000 1.000000 0.000000
vn 0.000000 1.000000 0.000000
vn 0.000000 1.000000 0.000000
vn 0.000000 1.000000 0.000000
vn 0.000000 1.000000 0.000000
s 1
g pPlane1
usemtl initialShadingGroup
f 1/1/1 2/2/2 103/103/3 102/102/4
f 2/2/2 3/3/5 104/104/6 103/103/3
f 3/3/5 4/4/7 105/105/8 104/104/6
f 4/4/7 5/5/9 106/106/10 105/105/8
f 5/5/9 6/6/11 107/107/12 106/106/10
f 6/6/11 7/7/13 108/108/14 107/107/12
f 7/7/13 8/8/15 109/109/16 108/108/14
f 8/8/15 9/9/17 110/110/18 109/109/16
f 9/9/17 10/10/19 111/111/20 110/110/18
f 10/10/19 11/11/21 112/112/22 111/111/20
f 11/11/21 12/12/23 113/113/24 112/112/22
f 12/12/23 13/13/25 114/114/26 113/113/24
f 13/13/25 14/14/27 115/115/28 114/114/26
f 14/14/27 15/15/29 116/116/30 115/115/28
f 15/15/29 16/16/31 117/117/32 116/116/30
f 16/16/31 17/17/33 118/118/34 117/117/32
f 17/17/33 18/18/35 119/119/36 118/118/34
f 18/18/35 19/19/37 120/120/38 119/119/36
f 19/19/37 20/20/39 121/121/40 120/120/38
f 20/20/39 21/21/41 122/122/42 121/121/40
f 21/21/41 22/22/43 123/123/44 122/122/42
f 22/22/43 23/23/45 124/124/46 123/123/44
f 23/23/45 24/24/47 125/125/48 124/124/46
f 24/24/47 25/25/49 126/126/50 125/125/48
f 25/25/49 26/26/51 127/127/52 126/126/50
f 26/26/51 27/27/53 128/128/54 127/127/52
f 27/27/53 28/28/55 129/129/56 128/128/54
f 28/28/55 29/29/57 130/130/58 129/129/56
f 29/29/57 30/30/59 131/131/60 130/130/58
f 30/30/59 31/31/61 132/132/62 131/131/60
f 31/31/61 32/32/63 133/133/64 132/132/62
f 32/32/63 33/33/65 134/134/66 133/133/64
f 33/33/65 34/34/67 135/135/68 134/134/66
f 34/34/67 35/35/69 136/136/70 135/135/68
f 35/35/69 36/36/71 137/137/72 136/136/70
f 36/36/71 37/37/73 138/138/74 137/137/72
f 37/37/73 38/38/75 139/139/76 138/138/74
f 38/38/75 39/39/77 140/140/78 139/139/76
f 39/39/77 40/40/79 141/141/80 140/140/78
f 40/40/79 41/41/81 142/142/82 141/141/80
f 41/41/81 42/42/83 143/143/84 142/142/82
f 42/42/83 43/43/85 144/144/86 143/143/84
f 43/43/85 44/44/87 145/145/88 144/144/86
f 44/44/87 45/45/89 146/146/90 145/145/88
f 45/45/89 46/46/91 147/147/92 146/146/90
f 46/46/91 47/47/93 148/148/94 147/147/92
f 47/47/93 48/48/95 149/149/96 148/148/94
f 48/48/95 49/49/97 150/150/98 149/149/96
f 49/49/97 50/50/99 151/151/100 150/150/98
f 50/50/99 51/51/101 152/152/102 151/151/100
f 51/51/101 52/52/103 153/153/104 152/152/102
f 52/52/103 53/53/105 154/154/106 153/153/104
f 53/53/105 54/54/107 155/155/108 154/154/106
f 54/54/107 55/55/109 156/156/110 155/155/108
f 55/55/109 56/56/111 157/157/112 156/156/110
f 56/56/111 57/57/113 158/158/114 157/157/112
f 57/57/113 58/58/115 159/159/116 158/158/114
f 58/58/115 59/59/117 160/160/118 159/159/116
f 59/59/117 60/60/119 161/161/120 160/160/118
f 60/60/119 61/61/121 162/162/122 161/161/120
f 61/61/121 62/62/123 163/163/124 162/162/122
f 62/62/123 63/63/125 164/164/126 163/163/124
f 63/63/125 64/64/127 165/165/128 164/164/126
f 64/64/127 65/65/129 166/166/130 165/165/128
f 65/65/129 66/66/131 167/167/132 166/166/130
f 66/66/131 67/67/133 168/168/134 167/167/132
f 67/67/133 68/68/135 169/169/136 168/168/134
f 68/68/135 69/69/137 170/170/138 169/169/136
f 69/69/137 70/70/139 171/171/140 170/170/138
f 70/70/139 71/71/141 172/172/142 171/171/140
f 71/71/141 72/72/143 173/173/144 172/172/142
f 72/72/143 73/73/145 174/174/146 173/173/144
f 73/73/145 74/74/147 175/175/148 174/174/146
f 74/74/147 75/75/149 176/176/150 175/175/148
f 75/75/149 76/76/151 177/177/152 176/176/150
f 76/76/151 77/77/153 178/178/154 177/177/152
f 77/77/153 78/78/155 179/179/156 178/178/154
f 78/78/155 79/79/157 180/180/158 179/179/156
f 79/79/157 80/80/159 181/181/160 180/180/158
f 80/80/159 81/81/161 182/182/162 181/181/160
f 81/81/161 82/82/163 183/183/164 182/182/162
f 82/82/163 83/83/165 184/184/166 183/183/164
f 83/83/165 84/84/167 185/185/168 184/184/166
f 84/84/167 85/85/169 186/186/170 185/185/168
f 85/85/169 86/86/171 187/187/172 186/186/170
f 86/86/171 87/87/173 188/188/174 187/187/172
f 87/87/173 88/88/175 189/189/176 188/188/174
f 88/88/175 89/89/177 190/190/178 189/189/176
f 89/89/177 90/90/179 191/191/180 190/190/178
f 90/90/179 91/91/181 192/192/182 191/191/180
f 91/91/181 92/92/183 193/193/184 192/192/182
f 92/92/183 93/93/185 194/194/186 193/193/184
f 93/93/185 94/94/187 195/195/188 194/194/186
f 94/94/187 95/95/189 196/196/190 195/195/188
f 95/95/189 96/96/191 197/197/192 196/196/190
f 96/96/191 97/97/193 198/198/194 197/197/192
f 97/97/193 98/98/195 199/199/196 198/198/194
f 98/98/195 99/99/197 200/200/198 199/199/196
f 99/99/197 100/100/199 201/201/200 200/200/198
f 100/100/199 101/101/201 202/202/202 201/201/200
